# File created by Blade
# Date/Time:  Wed Jan 21 19:08:52 2015
# Frame Rate: 120.000 fps
#------------------------------------------------------
:FULLY-SPECIFIED
:DEGREES
3416
root -2.904199 33.201467 -4.152810 26.315314 37.836344 -10.987208
RightUpLeg -119.916974 12.623401 -8.827118
RightLeg 84.443230 -0.000000 -0.000000
RightFoot 12.817432 0.860050 15.654824
RightToeBase 24.228965 -0.000000 -0.000000
LeftUpLeg -35.959949 -6.025241 9.548665
LeftLeg 13.994740 -0.000000 -0.000000
LeftFoot -11.010233 -16.017222 -5.134189
LeftToeBase 16.742492 -0.000000 -0.000000
Spine -44.403353 -32.478134 33.170555
RightShoulder -22.767117 14.668213 -43.436208
RightArm -4.221288 -13.146228 44.848441
RightForeArm 11.003810 -0.000000 -1.037623
RightHand 13.021463 0.000000 4.462562
RightHandThumb1 -24.326973 -0.000000 -32.862282
LeftShoulder 5.027511 -4.442757 20.951627
LeftArm 62.520374 56.604325 -44.084016
LeftForeArm 20.792310 -0.000000 17.514328
LeftHand -6.933032 -0.000000 -25.780945
LeftHandThumb1 -26.253704 0.000000 33.147579
Head 12.332940 -5.400141 9.994920
3417
root -2.908322 33.214710 -4.109728 26.170025 38.305017 -11.038332
RightUpLeg -119.899440 12.769151 -9.013467
RightLeg 84.652358 -0.000000 -0.000000
RightFoot 12.697236 0.911262 15.270812
RightToeBase 24.593942 -0.000000 -0.000000
LeftUpLeg -35.887601 -6.046637 9.629680
LeftLeg 13.982670 -0.000000 -0.000000
LeftFoot -10.861807 -16.305041 -5.603710
LeftToeBase 17.272407 -0.000000 -0.000000
Spine -44.451436 -32.722947 33.250851
RightShoulder -22.852404 14.425191 -43.478012
RightArm -4.348667 -13.221895 44.859951
RightForeArm 11.070450 -0.000000 -1.172994
RightHand 13.060214 -0.000000 4.575367
RightHandThumb1 -24.326973 -0.000000 -32.862282
LeftShoulder 4.770837 -4.347722 20.947688
LeftArm 61.095216 56.375394 -45.426899
LeftForeArm 20.826642 -0.000000 17.780556
LeftHand -7.066816 0.000000 -25.912403
LeftHandThumb1 -26.253704 0.000000 33.147579
Head 12.276221 -6.010470 10.083618
3418
root -2.914207 33.227813 -4.062497 26.007171 38.741334 -11.095193
RightUpLeg -119.888805 12.958333 -9.233023
RightLeg 84.872047 -0.000000 -0.000000
RightFoot 12.562775 0.884502 15.189798
RightToeBase 24.579966 -0.000000 -0.000000
LeftUpLeg -35.772687 -5.971941 9.672824
LeftLeg 13.918801 -0.000000 -0.000000
LeftFoot -10.681521 -16.732164 -6.296608
LeftToeBase 17.802920 -0.000000 -0.000000
Spine -44.460057 -32.933320 33.259003
RightShoulder -22.961994 14.230084 -43.531926
RightArm -4.537765 -13.246754 44.849171
RightForeArm 11.050342 -0.000000 -1.295161
RightHand 13.111802 0.000000 4.593266
RightHandThumb1 -24.326973 -0.000000 -32.862282
LeftShoulder 4.555820 -4.220602 20.991946
LeftArm 59.547332 56.082693 -46.884929
LeftForeArm 20.887353 -0.000000 18.135654
LeftHand -7.177727 0.000000 -25.938850
LeftHandThumb1 -26.253704 0.000000 33.147579
Head 12.230815 -6.686224 10.172985
3419
root -2.920705 33.241096 -4.019334 25.869312 39.196196 -11.127293
RightUpLeg -119.893068 13.112089 -9.463743
RightLeg 85.059965 -0.000000 -0.000000
RightFoot 12.620851 0.901851 14.910563
RightToeBase 24.151804 -0.000000 -0.000000
LeftUpLeg -35.678193 -5.837390 9.665240
LeftLeg 13.831700 -0.000000 -0.000000
LeftFoot -10.380604 -17.335235 -7.043490
LeftToeBase 18.110959 -0.000000 -0.000000
Spine -44.470582 -33.142228 33.247519
RightShoulder -23.129878 14.076813 -43.656120
RightArm -4.732974 -13.277352 44.862165
RightForeArm 10.937595 -0.000000 -1.438627
RightHand 13.043164 -0.000000 4.799864
RightHandThumb1 -24.326973 -0.000000 -32.862282
LeftShoulder 4.345576 -4.069603 21.042264
LeftArm 58.044133 55.685926 -48.374372
LeftForeArm 20.937713 -0.000000 18.466252
LeftHand -7.378243 -0.000000 -26.037146
LeftHandThumb1 -26.253704 0.000000 33.147579
Head 12.177666 -7.358583 10.260386
3420
root -2.944822 33.261360 -3.962180 25.572915 39.473822 -11.291282
RightUpLeg -119.828147 13.535564 -9.701211
RightLeg 85.112168 -0.000000 -0.000000
RightFoot 12.573301 0.849898 14.976829
RightToeBase 24.200839 -0.000000 -0.000000
LeftUpLeg -35.427382 -5.324626 9.632461
LeftLeg 13.707486 -0.000000 -0.000000
LeftFoot -10.064460 -18.225273 -8.175306
LeftToeBase 19.087104 -0.000000 -0.000000
Spine -44.261292 -33.247498 33.027274
RightShoulder -23.327310 13.813240 -43.659044
RightArm -4.868514 -13.299301 44.880345
RightForeArm 10.883409 -0.000000 -1.580574
RightHand 13.115593 -0.000000 4.585998
RightHandThumb1 -24.326973 -0.000000 -32.862282
LeftShoulder 4.158151 -3.891546 21.131512
LeftArm 56.647762 55.355036 -49.642132
LeftForeArm 21.163441 -0.000000 18.983824
LeftHand -7.495517 -0.000000 -26.066738
LeftHandThumb1 -26.253704 0.000000 33.147579
Head 12.207499 -8.134718 10.461838
